<svg xmlns="http://www.w3.org/2000/svg" viewBox="0 0 680.91 167.94">
  <title>logo</title>
  <g id="Layer_2" data-name="Layer 2">
    <g id="Layer_1-2" data-name="Layer 1">
      <g>
        <path d="M64.45,72.08a4.64,4.64,0,0,1-4.79-4.8V13.16a4.64,4.64,0,0,1,4.79-4.8l.86-1.47H44.49l.85,1.47a4.57,4.57,0,0,1,3.39,1.36,4.69,4.69,0,0,1,1.33,3.44V39.24H19.31v1.84H44.77a5.46,5.46,0,0,1,5.41,5.41V67.28a4.67,4.67,0,0,1-1.33,3.44,4.54,4.54,0,0,1-3.39,1.36l-.85,1.47H65.44l-.86-1.47Z" style="fill: #514333"/>
        <path d="M16.58,70.72a4.71,4.71,0,0,1-1.33-3.44V13.16a4.73,4.73,0,0,1,1.33-3.44A4.57,4.57,0,0,1,20,8.36l.85-1.47H0L.86,8.36A4.67,4.67,0,0,1,4.3,9.72a4.63,4.63,0,0,1,1.36,3.44V67.28A4.62,4.62,0,0,1,4.3,70.72,4.63,4.63,0,0,1,.86,72.08L0,73.55H20.82L20,72.08A4.54,4.54,0,0,1,16.58,70.72Z" style="fill: #514333"/>
        <path d="M81.18,16a5.45,5.45,0,0,0,5.53-5.53,5.54,5.54,0,1,0-11.07,0A5.46,5.46,0,0,0,81.18,16Z" style="fill: #514333"/>
        <path d="M87,70.48a4.52,4.52,0,0,1-1.35-3.32V22.39A23.34,23.34,0,0,1,81.55,25a24.59,24.59,0,0,1-4.74,1.72,24.67,24.67,0,0,1-6.33.74l.86,1.47a4.85,4.85,0,0,1,4.92,4.93V67.4a4.63,4.63,0,0,1-4.68,4.68l-.86,1.47H91.51l-1.23-1.72A4.52,4.52,0,0,1,87,70.48Z" style="fill: #514333"/>
        <path d="M141.82,70.72a4.62,4.62,0,0,1-1.36-3.44V0a19,19,0,0,1-7.13,3.75,28,28,0,0,1-8,1.29l.87,1.48a4.83,4.83,0,0,1,4.92,4.92v55A14.2,14.2,0,0,1,127,69.13a12.23,12.23,0,0,1-4.77,1A12,12,0,0,1,115,68a18.48,18.48,0,0,1-5-5.48,26,26,0,0,1-3-7.25,31.31,31.31,0,0,1-1-7.51,40.62,40.62,0,0,1,1-8.48,21.35,21.35,0,0,1,3.18-7.75,19.34,19.34,0,0,1,4.34-4.43,9.31,9.31,0,0,1,5.69-2,13.19,13.19,0,0,1,6.72,1.85,7.55,7.55,0,0,0-3.69-3.14,12.17,12.17,0,0,0-4.79-1.05A18.67,18.67,0,0,0,109.34,25a23.07,23.07,0,0,0-7,5.78A26,26,0,0,0,98,38.87a28.4,28.4,0,0,0,0,18.45,26.07,26.07,0,0,0,4.42,8.12,23.22,23.22,0,0,0,7,5.78,18.78,18.78,0,0,0,9.11,2.21,21.14,21.14,0,0,0,3.07-.25,15.14,15.14,0,0,0,3.08-.73l1.66-.49a5.8,5.8,0,0,1,1.78-.25,4.69,4.69,0,0,1,1.78.37A1.84,1.84,0,0,1,131,73.43h15.13l-.86-1.35A4.63,4.63,0,0,1,141.82,70.72Z" style="fill: #514333"/>
        <path d="M200.49,72.08a4.64,4.64,0,0,1-4.8-4.8V0a19.09,19.09,0,0,1-7.14,3.75,27.94,27.94,0,0,1-8,1.29l.86,1.48a4.82,4.82,0,0,1,4.92,4.92v55a14,14,0,0,1-4.16,2.71,12.23,12.23,0,0,1-4.77,1A12,12,0,0,1,170.25,68a18.35,18.35,0,0,1-5-5.48,25.68,25.68,0,0,1-3-7.25,30.82,30.82,0,0,1-1-7.51,40,40,0,0,1,1-8.48,21.35,21.35,0,0,1,3.18-7.75,19.14,19.14,0,0,1,4.34-4.43,9.29,9.29,0,0,1,5.68-2,13.2,13.2,0,0,1,6.73,1.85,7.55,7.55,0,0,0-3.69-3.14,12.18,12.18,0,0,0-4.8-1.05,18.66,18.66,0,0,0-9.1,2.22,23,23,0,0,0-6.95,5.78,26,26,0,0,0-4.43,8.12,28.4,28.4,0,0,0,0,18.45,26.1,26.1,0,0,0,4.43,8.12,23.1,23.1,0,0,0,6.95,5.78,18.77,18.77,0,0,0,9.1,2.21,21.27,21.27,0,0,0,3.08-.25,15,15,0,0,0,3.07-.73l1.66-.49a5.87,5.87,0,0,1,1.79-.25,4.73,4.73,0,0,1,1.78.37,1.88,1.88,0,0,1,1.17,1.35h15.13Z" style="fill: #514333"/>
        <path d="M227.05,50.92a14.15,14.15,0,0,1-2.15-.18,11.07,11.07,0,0,1-2.15-.56A12.24,12.24,0,0,0,227,52.77a14.39,14.39,0,0,0,4.86.86,15.41,15.41,0,0,0,6.09-1.23,16.54,16.54,0,0,0,5-3.32,15.48,15.48,0,0,0,3.38-4.92,15,15,0,0,0,1.23-6,15.39,15.39,0,0,0-1.29-6.34,14.3,14.3,0,0,0-3.57-4.91,16.2,16.2,0,0,0-5.28-3.14,18.19,18.19,0,0,0-6.34-1.11,21.56,21.56,0,0,0-9.65,2.15A22.94,22.94,0,0,0,214,30.57a27,27,0,0,0-4.79,8.3,27.82,27.82,0,0,0-1.72,9.71A28.77,28.77,0,0,0,209,57.81a26.1,26.1,0,0,0,4.43,8.12,23.1,23.1,0,0,0,6.95,5.78,19.72,19.72,0,0,0,19.13-.55A24.11,24.11,0,0,0,247,64h-.86a3,3,0,0,0-2.46,1.23l.12-.37A16.42,16.42,0,0,1,239,68.7a13.07,13.07,0,0,1-13.28-.87,18.7,18.7,0,0,1-5.17-5.72,27.47,27.47,0,0,1-3-7.5,32.12,32.12,0,0,1-1-7.62,31.12,31.12,0,0,1,.92-7.26,26.17,26.17,0,0,1,2.77-7A17,17,0,0,1,225,27.43a11.1,11.1,0,0,1,6.77-2.09,7.08,7.08,0,0,1,3.93,1,8.79,8.79,0,0,1,2.65,2.71,12.34,12.34,0,0,1,1.53,3.69,16.85,16.85,0,0,1,.5,4A15.11,15.11,0,0,1,237,47Q233.58,50.92,227.05,50.92Z" style="fill: #514333"/>
        <path d="M258.11,68.82a3.62,3.62,0,0,1-1.66,2.4,7.52,7.52,0,0,1-2.28.92,1.85,1.85,0,0,0-1.54,1.41h20.91A1.83,1.83,0,0,0,272,72.14a7.52,7.52,0,0,1-2.28-.92,2.67,2.67,0,0,1-1.47-2.09,17.4,17.4,0,0,1-.25-3V22.63c-.08.08-.44.35-1.06.8A19,19,0,0,1,264.27,25a27.69,27.69,0,0,1-4.17,1.6,25.67,25.67,0,0,1-5.37,1h-2a1.87,1.87,0,0,0,1.6,1.42,7.84,7.84,0,0,1,2.21.8,3.38,3.38,0,0,1,1.6,2.39,19.63,19.63,0,0,1,.25,3V65.8A15.8,15.8,0,0,1,258.11,68.82Z" style="fill: #514333"/>
        <path d="M288.67,69.13a2.73,2.73,0,0,1-1.23,2,7.57,7.57,0,0,1-2.33.93,1.88,1.88,0,0,0-1.6,1.53h20.91a2.41,2.41,0,0,0-1.11-1.1,10,10,0,0,0-2.09-1,4,4,0,0,1-1.84-1.23,3.21,3.21,0,0,1-.74-1.78,15.82,15.82,0,0,1-.13-2q.12-5.91.07-12t.06-12a54.55,54.55,0,0,0-.62-8,11.26,11.26,0,0,0-3.55-6.83,9.83,9.83,0,0,0-5-2.52,31.65,31.65,0,0,0-5.89-.55,18.39,18.39,0,0,0-5.51.73,14.86,14.86,0,0,0-3.8,1.73,11.61,11.61,0,0,0-2.82,2.46,11.54,11.54,0,0,1,4.68-1.73,14.15,14.15,0,0,1,4.5,0,8.74,8.74,0,0,1,4,1.73,9.75,9.75,0,0,1,3.63,6.15,43,43,0,0,1,.68,7.5V66.3A15.36,15.36,0,0,1,288.67,69.13Z" style="fill: #514333"/>
        <path d="M337.93,9.35a5.78,5.78,0,0,1,1.91,2.58c1.06,3.12,2.34,6.85,3.81,11.19s3,8.9,4.68,13.66,3.27,9.55,4.92,14.39,3.19,9.35,4.67,13.53a39,39,0,0,0,2,5,21.78,21.78,0,0,0,1.54,2.64,3.49,3.49,0,0,0,1.35,1.23l3.81-12.3Q362.72,49.82,359.4,40q-1.48-4.17-2.89-8.42l-2.71-8.06q-1.29-3.81-2.34-6.76t-1.54-4.68l.13.13a2.67,2.67,0,0,1,.37-2.59,2.72,2.72,0,0,1,2.33-1.23l.87-1.47H334.06l.86,1.47A4.8,4.8,0,0,1,337.93,9.35Z" style="fill: #514333"/>
        <path d="M414.25,8.24a2.69,2.69,0,0,1,2.22,1.11,2.67,2.67,0,0,1,.49,2.46L402.45,58.18Q400.35,52,398,44.89t-4.8-14.14q-2.4-7-4.49-13.22c-1.4-4.14-2.58-7.65-3.57-10.52H382l-3.32,10.58L368,51.66l1,3.07,10.7-34.07q1.6,4.92,3.57,10.58t3.93,11.5q2,5.85,3.94,11.56l3.69,10.77a26.17,26.17,0,0,0,1.91,4.85,27.71,27.71,0,0,0,1.53,2.53,2.63,2.63,0,0,0,1.36,1.1l3.81-12.3,15.5-49.2a5.37,5.37,0,0,1,2-2.7,5.32,5.32,0,0,1,3.13-1L425,6.89l-11.57-.13Z" style="fill: #514333"/>
        <path d="M437.5,16A5.46,5.46,0,0,0,443,10.46a5.46,5.46,0,0,0-5.54-5.54A5.46,5.46,0,0,0,432,10.46,5.46,5.46,0,0,0,437.5,16Z" style="fill: #514333"/>
        <path d="M431.23,70.72a4.49,4.49,0,0,1-3.32,1.36l-.86,1.47h20.78l-1.23-1.72a4.61,4.61,0,0,1-4.67-4.67V22.39A23,23,0,0,1,437.87,25a24.59,24.59,0,0,1-4.74,1.72,24.67,24.67,0,0,1-6.33.74l.86,1.47a4.83,4.83,0,0,1,4.92,4.93V67.4A4.5,4.5,0,0,1,431.23,70.72Z" style="fill: #514333"/>
        <path d="M456.07,70.72a4.49,4.49,0,0,1-3.32,1.36l-.86,1.47h20.79l-.86-1.47a4.71,4.71,0,0,1-3.39-1.36,5.51,5.51,0,0,1-1.66-3.44V0a23,23,0,0,1-4.06,2.58A24.73,24.73,0,0,1,458,4.3a24.37,24.37,0,0,1-6.34.74l.86,1.48a4.82,4.82,0,0,1,4.92,4.92v56A4.5,4.5,0,0,1,456.07,70.72Z" style="fill: #514333"/>
        <path d="M496.11,70.72a5.41,5.41,0,0,1-1.66-3.44V0a23.34,23.34,0,0,1-4.06,2.58,24.59,24.59,0,0,1-4.74,1.72,24.23,24.23,0,0,1-6.33.74l.86,1.48a4.83,4.83,0,0,1,4.92,4.92v56a4.63,4.63,0,0,1-4.68,4.68l-.86,1.47h20.79l-.86-1.47A4.69,4.69,0,0,1,496.11,70.72Z" style="fill: #514333"/>
        <path d="M551.89,30.26a25.25,25.25,0,0,0-18-7.38h-.12c-.58,0-1.13,0-1.66.06s-1.09.1-1.66.18A13,13,0,0,1,536.08,25a23.55,23.55,0,0,1,5.29,4.43A30.3,30.3,0,0,1,545.86,36a43.14,43.14,0,0,1,3.2,8.24A36.3,36.3,0,0,1,550.41,53,35.13,35.13,0,0,1,549.8,61a21.39,21.39,0,0,1-2.34,6.39,13.17,13.17,0,0,1-3.94,4.37,25.18,25.18,0,0,0,15.75-23.49,25,25,0,0,0-2-9.91A25.35,25.35,0,0,0,551.89,30.26Z" style="fill: #514333"/>
        <path d="M526.24,67.1a30.55,30.55,0,0,1-4.49-6.58,43.23,43.23,0,0,1-3.2-8.25h.13a36.32,36.32,0,0,1-1.36-8.73,35,35,0,0,1,.62-7.93,21,21,0,0,1,2.34-6.4,13,13,0,0,1,3.93-4.36,25.12,25.12,0,0,0-15.74,23.49,24.79,24.79,0,0,0,2,9.9,25.19,25.19,0,0,0,23.37,15.44c.57,0,1.12,0,1.66-.06s1.08-.11,1.66-.19a13,13,0,0,1-5.6-1.91A23.72,23.72,0,0,1,526.24,67.1Z" style="fill: #514333"/>
        <path d="M590.26,58.67,578.08,28.41a3.14,3.14,0,0,1,.25-2.95,2.85,2.85,0,0,1,2.58-1.35l.87-1.48H559.39l.86,1.48a8.42,8.42,0,0,1,4.92,1.54,8.68,8.68,0,0,1,3.2,4L585.1,71.09l1,2.46,5.17-12.42,7.13-16.85-1-2.46Z" style="fill: #514333"/>
        <path d="M629.38,24.11a2.49,2.49,0,0,1,2.15,1.17,2.43,2.43,0,0,1,.18,2.52l-13,30.87L606.5,28.41a3.13,3.13,0,0,1,.24-2.95,2.88,2.88,0,0,1,2.59-1.35l.86-1.48H587.8l.86,1.48a8.37,8.37,0,0,1,4.92,1.54,8.68,8.68,0,0,1,3.2,4l16.73,41.45,1,2.46,5.17-12.42,13.77-32.84A7.11,7.11,0,0,1,636,25.34a6.56,6.56,0,0,1,3.75-1.11l.86-1.48-12.06-.12Z" style="fill: #514333"/>
        <path d="M674.64,29.77a17.57,17.57,0,0,1,1.47,2.7,5.7,5.7,0,0,1,.74,2.83l1.48.86V25.46a2.39,2.39,0,0,1-1.11.25,4.15,4.15,0,0,1-2.34-.86,18,18,0,0,0-7.62-2.46,15.87,15.87,0,0,1,4.06,3.19A29.67,29.67,0,0,1,674.64,29.77Z" style="fill: #514333"/>
        <path d="M653.61,67.9V68a11.46,11.46,0,0,1-4.43-7.5l-1.36-.87V72.32H648a4,4,0,0,1,1.72-.49,3.78,3.78,0,0,1,1.11.25,31.5,31.5,0,0,0,8.36,1.1c.66,0,1.31,0,2-.06s1.31-.1,2-.18a14.72,14.72,0,0,1-5-2A44.56,44.56,0,0,1,653.61,67.9Z" style="fill: #514333"/>
        <path d="M679.62,53.57a18.18,18.18,0,0,0-3.2-4.12,29.18,29.18,0,0,0-4.24-3.39q-2.34-1.53-4.43-2.64a27.9,27.9,0,0,0-3.57-1.72,14.19,14.19,0,0,1-3.44-2,12.89,12.89,0,0,1-3.2-3.44,8.25,8.25,0,0,1-1.35-4.56,6.68,6.68,0,0,1,.74-3.07,9.73,9.73,0,0,1,2.64-3.51q1.41-1,3.51-2.4a16.77,16.77,0,0,0-5.23,1.36,18.42,18.42,0,0,0-4.55,2.83A13.37,13.37,0,0,0,650,31.06a11.55,11.55,0,0,0-1.23,5.35,10.67,10.67,0,0,0,1.72,6.27,16.36,16.36,0,0,0,4.37,4.24A33.79,33.79,0,0,0,660.55,50a46.18,46.18,0,0,1,5.66,2.89,17,17,0,0,1,4.37,3.69A8.22,8.22,0,0,1,672.3,62a11.47,11.47,0,0,1-.37,2.83,20,20,0,0,1-1,3,12.2,12.2,0,0,1-1.54,2.71,7.43,7.43,0,0,1-2.15,2,25.22,25.22,0,0,0,4.8-1.85,20.65,20.65,0,0,0,4.42-2.95,14.37,14.37,0,0,0,3.2-4,10.54,10.54,0,0,0,1.23-5.1A9.91,9.91,0,0,0,679.62,53.57Z" style="fill: #514333"/>
        <path d="M191.39,93.11l-.6,4.65,1.46-.61,0-.27a1.9,1.9,0,0,1,.39-.91,3.07,3.07,0,0,1,.79-.73,3.9,3.9,0,0,1,2.12-.63h2.12v15.31a.76.76,0,0,1-.8.8h-.28l-.82,1.4h7.39l-.82-1.4h-.28a.76.76,0,0,1-.8-.8V94.61h2.13a3.94,3.94,0,0,1,1.09.16,3.78,3.78,0,0,1,1,.47,3.24,3.24,0,0,1,.79.73,2,2,0,0,1,.39.91l0,.27,1.46.61-.6-4.65Z" style="fill: #514333"/>
        <path d="M239.89,95.83h0a9.69,9.69,0,0,0-3-2,9.39,9.39,0,0,0-3.7-.73q-.39,0-.75,0a7.38,7.38,0,0,0-.74.11l.09,1H232a4.78,4.78,0,0,1,2.37.61,8.32,8.32,0,0,1,2,1.63,10,10,0,0,1,1.52,2.22,13.51,13.51,0,0,1,1,2.41c.12.49.23,1,.3,1.5a11.25,11.25,0,0,1,.11,1.53,11.46,11.46,0,0,1-.17,1.9,8.12,8.12,0,0,1-.57,1.85,6.68,6.68,0,0,1-1,1.57,4.62,4.62,0,0,1-1.43,1.11l.4.91a9.49,9.49,0,0,0,2.55-1.42A9.29,9.29,0,0,0,241,108a9.56,9.56,0,0,0,1.69-5.41,9.29,9.29,0,0,0-.76-3.71A9.56,9.56,0,0,0,239.89,95.83Z" style="fill: #514333"/>
        <path d="M234.29,111a4.75,4.75,0,0,1-2.38-.62,8.09,8.09,0,0,1-2-1.63,10,10,0,0,1-1.52-2.21,13.57,13.57,0,0,1-.94-2.41,12.18,12.18,0,0,1-.3-1.53,9.8,9.8,0,0,1-.11-1.54,10.48,10.48,0,0,1,.17-1.9,8.1,8.1,0,0,1,.56-1.85,6.72,6.72,0,0,1,1-1.57,4.44,4.44,0,0,1,1.42-1.11l-.4-.91a9.52,9.52,0,0,0-6.17,8.9,9.09,9.09,0,0,0,.76,3.71,9.54,9.54,0,0,0,8.78,5.77,10.25,10.25,0,0,0,1.46-.11l-.07-1Z" style="fill: #514333"/>
        <path d="M262.83,102.38c-.26-.75-.52-1.51-.77-2.27l-.74-2.18c-.12-.38-.25-.73-.36-1.07l.13.14-.78-2.14a.21.21,0,0,1,0-.23.23.23,0,0,1,.22-.12h.29l.81-1.4h-7l.81,1.4h.29a.8.8,0,0,1,.51.16,1.07,1.07,0,0,1,.36.49l1,3,1.26,3.68c.44,1.29.89,2.58,1.33,3.89s.86,2.53,1.26,3.66a12,12,0,0,0,.58,1.41,7.34,7.34,0,0,0,.46.79,1.49,1.49,0,0,0,.58.49l.5.2,1.24-4-.05-.16C264.09,106.07,263.43,104.16,262.83,102.38Z" style="fill: #514333"/>
        <path d="M276.89,94.47h.29a.21.21,0,0,1,.2.11.21.21,0,0,1,.05.21L274,105.85l-.72-2.14L272,99.89c-.44-1.26-.84-2.45-1.22-3.57s-.69-2.06-1-2.84l-.12-.34h-1.55l-3.95,12.56.8,2.49,2.9-9.23c.15.45.31.91.48,1.39l1.06,3.1c.35,1.06.71,2.1,1.06,3.13l1,2.89a7.32,7.32,0,0,0,.56,1.41c.18.32.33.56.45.74a1.16,1.16,0,0,0,.67.49l.44.08,5.34-17a1,1,0,0,1,.37-.49.93.93,0,0,1,.56-.17h.29l.81-1.39-4.87-.05Z" style="fill: #514333"/>
        <path d="M299,110.57a.51.51,0,0,1-.16-.38l0-12.62-1.5-2.1v14.72a.46.46,0,0,1-.15.37.49.49,0,0,1-.38.16h-.28l-.82,1.4h4.8l-.82-1.4h-.29A.5.5,0,0,1,299,110.57Z" style="fill: #514333"/>
        <path d="M308.84,94.51a.48.48,0,0,1,.38.15.47.47,0,0,1,.15.38v10.72l-9.21-12.65h-4.92l.82,1.4h.29a.56.56,0,0,1,.42.14,5.5,5.5,0,0,1,.57.65l11.39,15.61a2.82,2.82,0,0,0,1,1,1,1,0,0,0,.57.19l.17,0,.4-.08V95a.55.55,0,0,1,.53-.53h.29l.82-1.4-4.8.05.81,1.39Z" style="fill: #514333"/>
        <path d="M329.15,110.5a.75.75,0,0,1-.57.22h-.29l-.82,1.4h7.36l-.8-1.4h-.29a.73.73,0,0,1-.56-.22.76.76,0,0,1-.22-.58V95.3a.78.78,0,0,1,.22-.58.76.76,0,0,1,.56-.21H334l.8-1.4h-7.36l.82,1.4h.29a.74.74,0,0,1,.79.79v14.62A.78.78,0,0,1,329.15,110.5Z" style="fill: #514333"/>
        <path d="M341.18,110.5h0a.72.72,0,0,1-.56.22h-.28l-.81,1.4h7.36l-.44-.76-.41-.64h-.29a.75.75,0,0,1-.57-.22.78.78,0,0,1-.22-.58V95.3a.74.74,0,0,1,.79-.79H346l.82-1.4h-7.37l.81,1.4h.29a.76.76,0,0,1,.56.21.78.78,0,0,1,.22.58v6.55h-8.31v1.49h7.38a.92.92,0,0,1,.67.29.9.9,0,0,1,.29.68v5.61A.76.76,0,0,1,341.18,110.5Z" style="fill: #514333"/>
        <path d="M366.86,97.33a6.68,6.68,0,0,1,1-1.57,4.48,4.48,0,0,1,1.43-1.11l-.41-.91a9.58,9.58,0,0,0-2.54,1.42,9.31,9.31,0,0,0-1.94,2.07,9.51,9.51,0,0,0-1.25,2.56,9.38,9.38,0,0,0-.44,2.85,9.26,9.26,0,0,0,.76,3.71,9.56,9.56,0,0,0,2.05,3,9.69,9.69,0,0,0,3,2,9.4,9.4,0,0,0,3.7.74,10.39,10.39,0,0,0,1.47-.11l-.07-1h-.24a4.68,4.68,0,0,1-2.37-.62,8.09,8.09,0,0,1-2-1.63,10.21,10.21,0,0,1-1.52-2.21,13.07,13.07,0,0,1-1-2.41,12.93,12.93,0,0,1-.3-1.53,10.76,10.76,0,0,1,.06-3.44A8.12,8.12,0,0,1,366.86,97.33Z" style="fill: #514333"/>
        <path d="M377.64,107.86a6.72,6.72,0,0,1-1,1.57,4.44,4.44,0,0,1-1.42,1.11l.4.91a9.45,9.45,0,0,0,4.49-3.49,9.79,9.79,0,0,0,1.24-2.56,9.48,9.48,0,0,0,.44-2.85,9.12,9.12,0,0,0-.76-3.71,9.52,9.52,0,0,0-5.08-5,9.36,9.36,0,0,0-3.7-.73c-.26,0-.51,0-.74,0a7,7,0,0,0-.74.11l.09,1h.23a4.84,4.84,0,0,1,2.38.61,8.32,8.32,0,0,1,2,1.63A10,10,0,0,1,377,98.67a11.81,11.81,0,0,1,1.24,3.91,9.93,9.93,0,0,1,.11,1.53,10.48,10.48,0,0,1-.17,1.9A7.63,7.63,0,0,1,377.64,107.86Z" style="fill: #514333"/>
        <path d="M418.17,94.73a.74.74,0,0,1,.57-.22H419l.82-1.4h-4.5V92.3l-.33.81h-.53l-5.64,13.75-6.2-13.75h-5.14l.81,1.4h.29a1,1,0,0,1,.66.26,1.92,1.92,0,0,1,.3.38,5.21,5.21,0,0,1,.51,1l6.32,14a5.77,5.77,0,0,0,.52.94,2.56,2.56,0,0,0,.51.56,1.44,1.44,0,0,0,.55.24l.41.08,6-14.58v12.55a.76.76,0,0,1-.21.58.78.78,0,0,1-.58.22h-.29l-.81,1.4h7.39l-.82-1.4h-.29a.74.74,0,0,1-.57-.22.76.76,0,0,1-.22-.58V95.3A.75.75,0,0,1,418.17,94.73Z" style="fill: #514333"/>
        <path d="M401.6,110.72a.52.52,0,0,1-.38-.15.54.54,0,0,1-.15-.38l0-11.53-1.5-3.51v15a.5.5,0,0,1-.15.37.51.51,0,0,1-.38.16h-.29l-.81,1.4h4.79l-.81-1.4Z" style="fill: #514333"/>
        <path d="M446.22,105.61V99.45l-1.4.81v.29a1.18,1.18,0,0,1-.35.88,1.06,1.06,0,0,1-.89.32h-3.31v1.53h3.32a1.2,1.2,0,0,1,1.23,1.23v.28Z" style="fill: #514333"/>
        <path d="M447.26,96.88l0,.27,1.45.61-.6-4.65H434.68l.82,1.4h.29a.75.75,0,0,1,.79.79v14.62a.76.76,0,0,1-.22.58.75.75,0,0,1-.57.22h-.29l-.82,1.4h13.47l.6-4.65-1.19.49.09.24,0,.14-.37,0a2.41,2.41,0,0,1-1.07,1.57,3.86,3.86,0,0,1-2.23.7h-3.79v-16H444a3.87,3.87,0,0,1,2.24.7A2.43,2.43,0,0,1,447.26,96.88Z" style="fill: #514333"/>
        <path d="M470.86,93.14l-.13,1a3.67,3.67,0,0,1,.58.26,7,7,0,0,1,1.48,1.21,4.94,4.94,0,0,1,.92,1.16,7.55,7.55,0,0,1,.51,1.07l.09.16a.36.36,0,0,1,0,.09l.18.68a.82.82,0,0,0,.5.68.84.84,0,0,0,.42.12h.5V93.37L474.8,94l-.16.07-.07.11a.3.3,0,0,1-.21,0L473.9,94a7.66,7.66,0,0,0-1.46-.61A7.34,7.34,0,0,0,470.86,93.14Z" style="fill: #514333"/>
        <path d="M475.41,103.32l0-.13-.09-.1a5.9,5.9,0,0,0-.91-.76,8.76,8.76,0,0,0-2.31-1.09,21.46,21.46,0,0,1-2.24-.84,11.39,11.39,0,0,1-1-.55,3.71,3.71,0,0,1-.83-.63,3.21,3.21,0,0,1-.56-.85,2.11,2.11,0,0,1-.2-.91,2.9,2.9,0,0,1,.34-1.5,3.66,3.66,0,0,1,.82-1,3.38,3.38,0,0,1,.86-.56l.52-.22-.24-1a5.9,5.9,0,0,0-2.14.82,5.82,5.82,0,0,0-1.66,1.53,4.89,4.89,0,0,0-1,3,4.83,4.83,0,0,0,.54,2.23,5.54,5.54,0,0,0,1.37,1.77,6.87,6.87,0,0,0,1.72,1c.58.25,1.17.47,1.76.68a21.46,21.46,0,0,1,2,.81,4.81,4.81,0,0,1,1.6,1.2,2.45,2.45,0,0,1,.62,1.26,2.07,2.07,0,0,1,0,.41,2.29,2.29,0,0,1-.4,1.37,4.34,4.34,0,0,1-1,1,5.45,5.45,0,0,1-1,.63,1.44,1.44,0,0,0-.38.19v.56l-.8-.49c-.39-.23-.72-.46-1-.67a9.58,9.58,0,0,1-.9-.76h0a5.45,5.45,0,0,1-1-1.18c-.2-.34-.36-.64-.49-.89l0-.08-.11-.23a.61.61,0,0,1-.07-.17l-.19-.69a.92.92,0,0,0-.44-.62l-1-.35V112l1.15-.67.17-.07.07-.11a.38.38,0,0,1,.21,0l.47.21a8.65,8.65,0,0,0,1.37.53,8.32,8.32,0,0,0,1.4.29l2.2.23-.48-.3a5.87,5.87,0,0,0,3.64-2.29,5,5,0,0,0,.74-1.38,4.89,4.89,0,0,0,.26-1.58,4.81,4.81,0,0,0-.41-2A5.31,5.31,0,0,0,475.41,103.32Z" style="fill: #514333"/>
        <path d="M381.77,149.89h0a4.53,4.53,0,0,0-5,1.64l-.16.24c-4-1.26-8.23-2.36-12.47-3.28.08-.43.58-1.49,3.3-3.2l.22.23a4.68,4.68,0,0,0,5.18.93.67.67,0,0,0,.37-.37.69.69,0,0,0,0-.51.74.74,0,0,0-.36-.38.67.67,0,0,0-.52,0,3.38,3.38,0,0,1-3.65-.55,2.29,2.29,0,0,1-.61-2.21,3.3,3.3,0,0,1,2.3-2.28c1.74-.55,6.26-.49,6.65.74.1.3-.12,1-1,1.86a2.73,2.73,0,0,1-.25.23.68.68,0,0,0,.92,1c1.42-1.31,2-2.49,1.65-3.5-.42-1.35-2.37-1.8-3.49-1.95a12.84,12.84,0,0,0-4.86.32,4.44,4.44,0,0,0-3.23,5l.07.29-.26.15a13.16,13.16,0,0,0-4.54,3.68L362,148c-4.12-.82-8.33-1.47-12.52-1.92l.79-.43a18.42,18.42,0,0,0,5-3.59l.2-.23.28.14a4.48,4.48,0,0,0,5.34-1.45c1.12-1.38,2.53-4.63,2.3-6.78a2.25,2.25,0,0,0-.76-1.59c-1.85-1.49-6.2,1.23-7.86,3.26a4.49,4.49,0,0,0-.48,5.27l.15.24c-5,4.61-9.35,4.74-9.39,4.74H345c-4.38-.33-8.77-.46-13.05-.4-.42-1.17-.52-3.86,5.33-6.66l.2.2a4.48,4.48,0,0,0,5.45.43c1.7-1,4.33-3.82,4.6-5.95a1.92,1.92,0,0,0-.52-1.71c-.76-.77-2.46-1-4.55-.6a9.85,9.85,0,0,0-4.68,2.06,4.38,4.38,0,0,0-1.26,4l.07.32-.29.14c-2.05,1-6.79,3.67-6.59,7.77v0c-3.67.12-7.35.37-10.94.77-.12-1.08,1.06-3.31,2.16-5l.18-.26.3.11a4.7,4.7,0,0,0,5.05-1.47.74.74,0,0,0,.18-.49.66.66,0,0,0-.23-.47.66.66,0,0,0-.49-.17.69.69,0,0,0-.47.22,3.54,3.54,0,0,1-2.55,1.27,2.66,2.66,0,0,1-1.89-.72,3,3,0,0,1,.4-4.14l0-.05a11.27,11.27,0,0,1,3.48-2c1-.39,2.37-.69,2.81-.25.24.25.33,1-.21,2.45a.69.69,0,0,0,0,.51.64.64,0,0,0,.38.36.72.72,0,0,0,.52,0,.69.69,0,0,0,.35-.38c.68-1.8.65-3.11-.11-3.89-1-1-3-.51-4.08-.12a12.3,12.3,0,0,0-4.17,2.47,4.36,4.36,0,0,0-.62,5.79l.17.21c-.66.7-3.12,3.52-3.4,6.29-3.84.49-7.57,1.12-11.1,1.89a14.58,14.58,0,0,0,2.2-4.8l.27,0H308a4.08,4.08,0,0,0,3.45-1.26,5.19,5.19,0,0,0,1.15-1.79c.63-1.67,1-5.19.08-7.13a2.06,2.06,0,0,0-3-1.15c-2,.89-4,3.75-4.68,5.41a4.54,4.54,0,0,0,1.19,5.15l.24.19-.12.28c-.93,2.19-3.44,4.74-4.88,6.1q-1.09.28-1.86.51h0c-2.08.51-3.95,1.07-5.6,1.57-3.22,1-5.77,1.75-8.08,1.62l-.2,0-2,7.35.57-.42c3.28-2.37,9.55-4.29,12.57-5.21l.54-.17c3.19-.42,6.88,2.4,7.67,3l-.14.26a4.55,4.55,0,0,0,1,5.36c1.54,1.54,6.09,4.27,7.92,2.56l.06,0c1.75-1.76-.65-6.56-2.18-8.19a4.55,4.55,0,0,0-5.36-1.12l-.11.1h-.33l-.12-.11a19.67,19.67,0,0,0-5.55-3.37A105,105,0,0,1,317,149c.27,1.73,1.15,6.41,2.94,9l.14.21-.13.22a.77.77,0,0,1-.09.13A3.94,3.94,0,0,0,319,161a5.12,5.12,0,0,0,1.72,3.86c2.22,2.22,4.28,3.11,5.69,3.11a2.37,2.37,0,0,0,1.16-.27c1-.6,1.31-2.22.74-4.45a11.1,11.1,0,0,0-2.3-4.63,4.44,4.44,0,0,0-4.5-1.2l-.28.09a15.49,15.49,0,0,1-1.83-8.86c2-.27,4.13-.49,6.21-.66.95,1.72,3.24,5.53,5.63,7.28l.18.13-.05.36a4.27,4.27,0,0,0,1.16,4.53,11,11,0,0,0,7.25,2.39,2.61,2.61,0,0,0,2-1,2.27,2.27,0,0,0,.23-1.76c-.42-2.12-2.73-4.79-4.2-5.77a4.58,4.58,0,0,0-5.29,0l-.23.19a14.53,14.53,0,0,1-4.42-6.53c2.77-.17,5.63-.26,8.47-.25,1.77.7,4.95,2.08,6.57,3.68l.22.22-.15.27a4.49,4.49,0,0,0,.87,5.22l.13.14c1.54,1.54,6.1,4.27,7.94,2.55.77-.72.87-2,.29-3.85a.68.68,0,0,0-.34-.4.68.68,0,0,0-.95.81c.38,1.2.41,2.12.07,2.45s-1.13.32-2.68-.34a11.5,11.5,0,0,1-3.47-2.29,3,3,0,0,1-.23-4.2,2.55,2.55,0,0,1,1.9-.62,3.52,3.52,0,0,1,2.51,1.4.71.71,0,0,0,.46.25.65.65,0,0,0,.5-.15.61.61,0,0,0,.24-.45.69.69,0,0,0-.14-.5,4.52,4.52,0,0,0-5.73-1.41l-.24.14a14.48,14.48,0,0,0-2.81-2.82,153.11,153.11,0,0,1,17.17,1.6v0c.09,3.64,4,6.48,5.75,7.53l.28.17-.11.31a4.41,4.41,0,0,0,1.19,4.56,11.12,11.12,0,0,0,7,2.57,2.48,2.48,0,0,0,1.92-.84c1.41-1.88-1.49-6.2-3.53-7.74a4.51,4.51,0,0,0-5.49-.15l-.22.19c-4.05-2.48-4.34-5-4.2-6.2,5.67,1,10.07,2,12.76,2.72l.61.17,1.42.4.3.1v.32a4.45,4.45,0,0,0,3.5,4.36c1.85.49,6.18.44,7.73-1.11a1.81,1.81,0,0,0,.52-1.87C387.4,152.77,384.24,150.54,381.77,149.89Zm4.87,5.5c-.35,1.19-4.63,1.56-6.6,1a3.28,3.28,0,0,1-2.46-2.41,2.29,2.29,0,0,1,.94-2.34,3.26,3.26,0,0,1,1.93-.61,3.54,3.54,0,0,1,1,.13,11.59,11.59,0,0,1,4.36,2.6C386.42,154.45,386.73,155,386.64,155.39ZM355,138.52a3.52,3.52,0,0,1,.82-2.22,11.48,11.48,0,0,1,3.56-2.66c1.13-.54,2.09-.65,2.43-.37s.51,1.11-.18,3.21a10,10,0,0,1-1.88,3.52,2.92,2.92,0,0,1-3.86.5A2.51,2.51,0,0,1,355,138.52Zm-17.24-2.62a3.24,3.24,0,0,1,.95-1.88c1.26-1.26,4.24-1.85,5.85-1.85a5,5,0,0,1,.58,0,1.29,1.29,0,0,1,1,.45,1,1,0,0,1,.05.74,10.9,10.9,0,0,1-3.94,4.71,3.17,3.17,0,0,1-3.8-.23A2.34,2.34,0,0,1,337.74,135.9ZM309,142a2.31,2.31,0,0,1-2.15-.62,3.28,3.28,0,0,1-.57-3.44,11.34,11.34,0,0,1,2.41-3.51,3.82,3.82,0,0,1,2.09-1.3l.15,0a.53.53,0,0,1,.24.15c.91.91.88,4.68.17,6.55A3.35,3.35,0,0,1,309,142Zm11.39,18.81a2.52,2.52,0,0,1,1-1.84h0a2.37,2.37,0,0,1,1.45-.47,3.39,3.39,0,0,1,2.65,1.42c1.2,1.6,2.44,5.6,1.56,6.47l-.05,0c-.74.55-3.43-.79-5.25-2.6A4,4,0,0,1,320.35,160.85Zm-14.58-.94a2.6,2.6,0,0,1,.69-2l.06-.06a2.46,2.46,0,0,1,1.68-.63,3.42,3.42,0,0,1,2.4,1,10.88,10.88,0,0,1,2.09,3.58c.6,1.64.5,2.54.21,2.83s-1.14.32-2.68-.34a11.54,11.54,0,0,1-3.37-2.18A3.59,3.59,0,0,1,305.77,159.91Zm26.74-2.58a2.39,2.39,0,0,1,.66-1.94,2.65,2.65,0,0,1,1.91-.73,3.66,3.66,0,0,1,2,.61,11.51,11.51,0,0,1,3.21,3.72c.54,1,.56,1.68.41,1.91l-.08.09c-.89.89-4.92-.14-6.54-1.22A3.39,3.39,0,0,1,332.51,157.33Zm33.7-.44a2.58,2.58,0,0,1,1.84-.73,4,4,0,0,1,2.81,1.33,12.66,12.66,0,0,1,2.2,3c.61,1.23.61,2,.41,2.22l0,.05c-.43.43-1.59.4-3.27-.09a9.7,9.7,0,0,1-3.62-1.83A2.83,2.83,0,0,1,366.21,156.89Z" style="fill: #514333"/>
      </g>
    </g>
  </g>
</svg>
