<svg xmlns="http://www.w3.org/2000/svg" viewBox="0 0 111.81 36.62">
  <title>willow</title>
  <g id="Layer_2" data-name="Layer 2">
    <g id="Layer_1-2" data-name="Layer 1">
      <g>
        <path d="M0,25.3c0,4,1.73,7.86,4.81,11.32H107c3.08-3.46,4.8-7.29,4.8-11.32,0-4.77-2.4-9.26-6.62-13.18H6.62C2.4,16,0,20.53,0,25.3Z" style="fill: #f2efeb"/>
        <path d="M89.79,8a4.17,4.17,0,0,0-3.06,4.65l.11.47-.42.24A13.06,13.06,0,0,0,82,17l-.16.26c-4.65-.94-9.16-1.6-13.48-2l1.51-.81a18.11,18.11,0,0,0,4.92-3.54l.33-.37.45.22a4.24,4.24,0,0,0,5-1.38C81.66,8,83,4.82,82.82,2.74a2,2,0,0,0-.67-1.43c-1.7-1.38-6,1.31-7.5,3.23a4.23,4.23,0,0,0-.48,5l.28.42c-5.22,4.88-9.72,5-9.72,5h0c-4.7-.36-9.17-.48-13.33-.41-.44-1-1-4.12,5.55-7.22l.33.32a4.2,4.2,0,0,0,5.14.4c1.66-1,4.22-3.71,4.48-5.77a1.69,1.69,0,0,0-.45-1.5c-.69-.7-2.35-.9-4.32-.53a9.54,9.54,0,0,0-4.56,2A4.1,4.1,0,0,0,56.42,6l.12.52-.48.22c-2,1-6.64,3.59-6.44,7.53v.28c-4.13.12-7.94.41-11.4.8v-.06c-.38-1.4,1.73-4.67,2.16-5.31l.29-.43.48.18a4.46,4.46,0,0,0,4.78-1.41.42.42,0,0,0,0-.6.44.44,0,0,0-.31-.11.44.44,0,0,0-.29.14,3.88,3.88,0,0,1-2.74,1.36,2.82,2.82,0,0,1-2.08-.81,3.26,3.26,0,0,1,.41-4.49l0,0A11.48,11.48,0,0,1,44.5,1.63c.55-.21,2.41-.85,3.08-.18.39.41.33,1.42-.15,2.7a.42.42,0,0,0,.57.54.4.4,0,0,0,.22-.24c.64-1.67.63-2.92,0-3.62C47.26-.08,45.38.4,44.35.77a11.91,11.91,0,0,0-4.07,2.42,4.11,4.11,0,0,0-.61,5.45L40,9s-3.31,3.36-3.5,6.5c-4.82.6-8.85,1.36-11.93,2.06a14.17,14.17,0,0,0,2.59-5.42l.48-.06h.1A3.8,3.8,0,0,0,31,10.91,4.82,4.82,0,0,0,32,9.21c.61-1.62,1-5.05.09-6.93A2,2,0,0,0,31,1.11c-2-.77-5.27,3.16-6.12,5.41A4.3,4.3,0,0,0,26,11.39l.39.31-.2.46c-.94,2.22-3.46,4.8-5,6.22l-1.91.52h0c-6.07,1.49-10.17,3.39-13.78,3.2L3.81,28.57C7.36,26,14.41,24,17,23.13c3.72-.48,8,3.24,8,3.24l-.24.44a4.29,4.29,0,0,0,.95,5.06c1.45,1.44,5.9,4.12,7.57,2.56l.06,0c1.62-1.63-.75-6.31-2.19-7.85a4.24,4.24,0,0,0-5.05-1.06L26,25.6h-.54l-.19-.19a20.84,20.84,0,0,0-6.07-3.57A104.36,104.36,0,0,1,36.9,17.62c.19,1.23,1.06,6.42,2.94,9.17l.23.34-.2.36-.11.16A3.65,3.65,0,0,0,39,29.91a4.92,4.92,0,0,0,1.65,3.68c2.73,2.73,5.36,3.48,6.55,2.8.94-.54,1.17-2.06.62-4.18a10.87,10.87,0,0,0-2.23-4.51,4.2,4.2,0,0,0-4.24-1.14l-.47.16a15.57,15.57,0,0,1-1.95-9.38q3.33-.45,6.58-.7c.85,1.54,3.2,5.56,5.63,7.34l.29.2,0,.36,0,.21A4,4,0,0,0,52.41,29a10.68,10.68,0,0,0,7.05,2.32,2.34,2.34,0,0,0,1.82-.86,2,2,0,0,0,.21-1.58c-.42-2.06-2.67-4.65-4.1-5.6a4.31,4.31,0,0,0-5,0l-.39.31a14.63,14.63,0,0,1-4.73-7.07c3-.19,6-.28,8.83-.27,2,.77,5.07,2.14,6.71,3.75l.35.35-.24.44a4.24,4.24,0,0,0,.83,4.92l.13.14c1.44,1.44,5.89,4.12,7.58,2.54.7-.65.78-1.86.23-3.59a.42.42,0,0,0-.22-.25.44.44,0,0,0-.32,0,.43.43,0,0,0-.28.54c.42,1.31.43,2.29,0,2.71s-1.54.31-2.95-.29a11.91,11.91,0,0,1-3.56-2.35,3.26,3.26,0,0,1-.21-4.56,2.81,2.81,0,0,1,2.09-.69,3.88,3.88,0,0,1,2.69,1.5.43.43,0,0,0,.6.06.39.39,0,0,0,.15-.28.41.41,0,0,0-.09-.32,4.27,4.27,0,0,0-5.41-1.35l-.43.25a14.4,14.4,0,0,0-3.59-3.43A154.75,154.75,0,0,1,78.44,18v.23c.08,3.52,4,6.29,5.63,7.32l.45.28-.18.5a4.17,4.17,0,0,0,1.13,4.3,10.91,10.91,0,0,0,6.85,2.5,2.28,2.28,0,0,0,1.74-.75c1.3-1.72-1.56-5.94-3.48-7.39a4.28,4.28,0,0,0-5.19-.15l-.36.3c-4.69-2.81-4.62-5.78-4.42-6.8,5.88,1,10.42,2.08,13,2.78.67.19,1.35.37,2,.57l.5.15,0,.51a4.2,4.2,0,0,0,3.32,4.11c1.75.46,6,.42,7.49-1.05a1.53,1.53,0,0,0,.45-1.62c-.5-1.88-3.63-4.07-6-4.7a4.3,4.3,0,0,0-4.69,1.54l-.26.4c-4.38-1.37-8.66-2.48-12.84-3.37,0-.39.2-1.62,3.61-3.72l.36.37a4.44,4.44,0,0,0,4.9.87.42.42,0,0,0,.24-.23.47.47,0,0,0,0-.33.41.41,0,0,0-.22-.23.42.42,0,0,0-.33,0,3.61,3.61,0,0,1-3.92-.6,2.54,2.54,0,0,1-.68-2.45,3.61,3.61,0,0,1,2.47-2.46c1.7-.53,6.49-.57,7,.91.16.49-.24,1.26-1.09,2.11a2.83,2.83,0,0,1-.25.24.44.44,0,0,0,0,.61.43.43,0,0,0,.6,0c1.34-1.23,1.87-2.33,1.58-3.24-.38-1.22-2.22-1.64-3.28-1.78A12.53,12.53,0,0,0,89.79,8Zm8.29,12.38a3.48,3.48,0,0,1,2.08-.65,4,4,0,0,1,1,.13,11.79,11.79,0,0,1,4.47,2.67c.72.72,1,1.37.93,1.84-.43,1.45-5,1.71-6.91,1.21h0A3.54,3.54,0,0,1,97,23,2.54,2.54,0,0,1,98.08,20.41ZM85.74,25.65a2.87,2.87,0,0,1,2-.81,4.29,4.29,0,0,1,3,1.41A13,13,0,0,1,93,29.35c.58,1.16.71,2.07.37,2.51l0,.06c-.64.63-2.26.33-3.51,0A9.9,9.9,0,0,1,86.07,30,3.07,3.07,0,0,1,85.74,25.65ZM52,26.29a2.68,2.68,0,0,1,.73-2.15,2.91,2.91,0,0,1,2.08-.8,3.86,3.86,0,0,1,2.13.66,11.85,11.85,0,0,1,3.29,3.81c.51,1,.65,1.77.38,2.18l-.1.11c-1.07,1.07-5.3-.15-6.85-1.18A3.66,3.66,0,0,1,52,26.29Zm-11.1,1.45a2.62,2.62,0,0,1,1.59-.51,3.64,3.64,0,0,1,2.86,1.52c1.14,1.53,2.6,5.73,1.53,6.81l-.07.06c-.94.69-3.81-.87-5.58-2.63a4.21,4.21,0,0,1-1.39-3.22A2.78,2.78,0,0,1,40.87,27.74ZM25.23,28.87A2.87,2.87,0,0,1,26,26.65l.06-.06a2.71,2.71,0,0,1,1.85-.69A3.74,3.74,0,0,1,30.49,27a11.4,11.4,0,0,1,2.14,3.68c.54,1.49.6,2.64.15,3.1s-1.55.31-3-.29a12.1,12.1,0,0,1-3.45-2.24A3.8,3.8,0,0,1,25.23,28.87Zm1.11-18.34a3.55,3.55,0,0,1-.63-3.71,11.66,11.66,0,0,1,2.47-3.59,3.91,3.91,0,0,1,2.27-1.37.76.76,0,0,1,.21,0A.79.79,0,0,1,31,2.1c1,1,.9,5,.22,6.81a3.61,3.61,0,0,1-2.52,2.31A2.55,2.55,0,0,1,26.34,10.53ZM57.2,4.81a3.5,3.5,0,0,1,1-2c1.32-1.32,4.31-1.93,6-1.93a5.53,5.53,0,0,1,.61,0A1.49,1.49,0,0,1,66,1.46a1.16,1.16,0,0,1,.08.93,11.08,11.08,0,0,1-4,4.86A3.42,3.42,0,0,1,57.92,7,2.56,2.56,0,0,1,57.2,4.81ZM74.44,7.45a3.79,3.79,0,0,1,.87-2.37A11.52,11.52,0,0,1,79,2.35,4.81,4.81,0,0,1,80.9,1.8a1.16,1.16,0,0,1,.77.23c.51.51.47,1.68-.11,3.47a10.5,10.5,0,0,1-1.94,3.61,3.17,3.17,0,0,1-4.2.52A2.73,2.73,0,0,1,74.44,7.45Z" style="fill: #514333"/>
      </g>
    </g>
  </g>
</svg>
