<svg xmlns="http://www.w3.org/2000/svg" viewBox="0 0 680.91 167.69">
  <title>logo</title>
  <g id="Layer_2" data-name="Layer 2">
    <g id="Layer_1-2" data-name="Layer 1">
      <g>
        <path d="M64.45,72.08a4.64,4.64,0,0,1-4.79-4.8V13.16a4.64,4.64,0,0,1,4.79-4.8l.86-1.47H44.49l.85,1.47a4.57,4.57,0,0,1,3.39,1.36,4.69,4.69,0,0,1,1.33,3.44V39.24H19.31v1.84H44.77a5.46,5.46,0,0,1,5.41,5.41V67.28a4.67,4.67,0,0,1-1.33,3.44,4.54,4.54,0,0,1-3.39,1.36l-.85,1.47H65.44l-.86-1.47Z" style="fill: #514333"/>
        <path d="M16.58,70.72a4.71,4.71,0,0,1-1.33-3.44V13.16a4.73,4.73,0,0,1,1.33-3.44A4.57,4.57,0,0,1,20,8.36l.85-1.47H0L.86,8.36A4.67,4.67,0,0,1,4.3,9.72a4.63,4.63,0,0,1,1.36,3.44V67.28A4.62,4.62,0,0,1,4.3,70.72,4.63,4.63,0,0,1,.86,72.08L0,73.55H20.82L20,72.08A4.54,4.54,0,0,1,16.58,70.72Z" style="fill: #514333"/>
        <path d="M87,70.48a4.52,4.52,0,0,1-1.35-3.32V22.39A23.34,23.34,0,0,1,81.55,25a24.59,24.59,0,0,1-4.74,1.72,24.67,24.67,0,0,1-6.33.74l.86,1.47a4.85,4.85,0,0,1,4.92,4.93V67.4a4.63,4.63,0,0,1-4.68,4.68l-.86,1.47H91.51l-1.23-1.72A4.52,4.52,0,0,1,87,70.48Z" style="fill: #514333"/>
        <path d="M81.18,16a5.45,5.45,0,0,0,5.53-5.53,5.54,5.54,0,1,0-11.07,0A5.46,5.46,0,0,0,81.18,16Z" style="fill: #514333"/>
        <path d="M141.82,70.72a4.62,4.62,0,0,1-1.36-3.44V0a19,19,0,0,1-7.13,3.75,28,28,0,0,1-8,1.29l.87,1.48a4.83,4.83,0,0,1,4.92,4.92v55A14.2,14.2,0,0,1,127,69.13a12.23,12.23,0,0,1-4.77,1A12,12,0,0,1,115,68a18.48,18.48,0,0,1-5-5.48,26,26,0,0,1-3-7.25,31.31,31.31,0,0,1-1-7.51,40.62,40.62,0,0,1,1-8.48,21.35,21.35,0,0,1,3.18-7.75,19.34,19.34,0,0,1,4.34-4.43,9.31,9.31,0,0,1,5.69-2,13.19,13.19,0,0,1,6.72,1.85,7.55,7.55,0,0,0-3.69-3.14,12.17,12.17,0,0,0-4.79-1.05A18.67,18.67,0,0,0,109.34,25a23.07,23.07,0,0,0-7,5.78A26,26,0,0,0,98,38.87a28.4,28.4,0,0,0,0,18.45,26.07,26.07,0,0,0,4.42,8.12,23.22,23.22,0,0,0,7,5.78,18.78,18.78,0,0,0,9.11,2.21,21.14,21.14,0,0,0,3.07-.25,15.14,15.14,0,0,0,3.08-.73l1.66-.49a5.8,5.8,0,0,1,1.78-.25,4.69,4.69,0,0,1,1.78.37A1.84,1.84,0,0,1,131,73.43h15.13l-.86-1.35A4.63,4.63,0,0,1,141.82,70.72Z" style="fill: #514333"/>
        <path d="M197,70.72a4.65,4.65,0,0,1-1.35-3.44V0a19.09,19.09,0,0,1-7.14,3.75,27.94,27.94,0,0,1-8,1.29l.86,1.48a4.82,4.82,0,0,1,4.92,4.92v55a14,14,0,0,1-4.16,2.71,12.23,12.23,0,0,1-4.77,1A12,12,0,0,1,170.25,68a18.35,18.35,0,0,1-5-5.48,25.68,25.68,0,0,1-3-7.25,30.82,30.82,0,0,1-1-7.51,40,40,0,0,1,1-8.48,21.35,21.35,0,0,1,3.18-7.75,19.14,19.14,0,0,1,4.34-4.43,9.29,9.29,0,0,1,5.68-2,13.2,13.2,0,0,1,6.73,1.85,7.55,7.55,0,0,0-3.69-3.14,12.18,12.18,0,0,0-4.8-1.05,18.66,18.66,0,0,0-9.1,2.22,23,23,0,0,0-6.95,5.78,26,26,0,0,0-4.43,8.12,28.4,28.4,0,0,0,0,18.45,26.1,26.1,0,0,0,4.43,8.12,23.1,23.1,0,0,0,6.95,5.78,18.77,18.77,0,0,0,9.1,2.21,21.27,21.27,0,0,0,3.08-.25,15,15,0,0,0,3.07-.73l1.66-.49a5.87,5.87,0,0,1,1.79-.25,4.73,4.73,0,0,1,1.78.37,1.88,1.88,0,0,1,1.17,1.35h15.13l-.86-1.35A4.64,4.64,0,0,1,197,70.72Z" style="fill: #514333"/>
        <path d="M247,64h-.86a3,3,0,0,0-2.46,1.23l.12-.37A16.42,16.42,0,0,1,239,68.7a13.07,13.07,0,0,1-13.28-.87,18.7,18.7,0,0,1-5.17-5.72,27.47,27.47,0,0,1-3-7.5,32.12,32.12,0,0,1-1-7.62,31.12,31.12,0,0,1,.92-7.26,26.17,26.17,0,0,1,2.77-7A17,17,0,0,1,225,27.43a11.1,11.1,0,0,1,6.77-2.09,7.08,7.08,0,0,1,3.93,1,8.79,8.79,0,0,1,2.65,2.71,12.34,12.34,0,0,1,1.53,3.69,16.85,16.85,0,0,1,.5,4A15.11,15.11,0,0,1,237,47q-3.37,3.93-9.9,3.93a14.15,14.15,0,0,1-2.15-.18,11.07,11.07,0,0,1-2.15-.56A12.24,12.24,0,0,0,227,52.77a14.39,14.39,0,0,0,4.86.86,15.41,15.41,0,0,0,6.09-1.23,16.54,16.54,0,0,0,5-3.32,15.48,15.48,0,0,0,3.38-4.92,15,15,0,0,0,1.23-6,15.39,15.39,0,0,0-1.29-6.34,14.3,14.3,0,0,0-3.57-4.91,16.2,16.2,0,0,0-5.28-3.14,18.19,18.19,0,0,0-6.34-1.11,21.56,21.56,0,0,0-9.65,2.15A22.94,22.94,0,0,0,214,30.57a27,27,0,0,0-4.79,8.3,27.82,27.82,0,0,0-1.72,9.71A28.77,28.77,0,0,0,209,57.81a26.1,26.1,0,0,0,4.43,8.12,23.1,23.1,0,0,0,6.95,5.78,19.72,19.72,0,0,0,19.13-.55A24.11,24.11,0,0,0,247,64Z" style="fill: #514333"/>
        <path d="M280.6,27.67a8.74,8.74,0,0,1,4,1.73,9.75,9.75,0,0,1,3.63,6.15,43,43,0,0,1,.68,7.5V66.3a15.36,15.36,0,0,1-.25,2.83,2.73,2.73,0,0,1-1.23,2,7.57,7.57,0,0,1-2.33.93,1.88,1.88,0,0,0-1.6,1.53h20.91a2.41,2.41,0,0,0-1.11-1.1,10,10,0,0,0-2.09-1,4,4,0,0,1-1.84-1.23,3.21,3.21,0,0,1-.74-1.78,15.82,15.82,0,0,1-.13-2q.12-5.91.07-12t.06-12a54.55,54.55,0,0,0-.62-8,11.26,11.26,0,0,0-3.55-6.83,9.83,9.83,0,0,0-5-2.52,31.65,31.65,0,0,0-5.89-.55,18.39,18.39,0,0,0-5.51.73,14.86,14.86,0,0,0-3.8,1.73,11.61,11.61,0,0,0-2.82,2.46,11.54,11.54,0,0,1,4.68-1.73A14.15,14.15,0,0,1,280.6,27.67Z" style="fill: #514333"/>
        <path d="M258.11,68.82a3.62,3.62,0,0,1-1.66,2.4,7.52,7.52,0,0,1-2.28.92,1.85,1.85,0,0,0-1.54,1.41h20.91A1.83,1.83,0,0,0,272,72.14a7.52,7.52,0,0,1-2.28-.92,2.67,2.67,0,0,1-1.47-2.09,17.4,17.4,0,0,1-.25-3V22.63c-.08.08-.44.35-1.06.8A19,19,0,0,1,264.27,25a27.69,27.69,0,0,1-4.17,1.6,25.67,25.67,0,0,1-5.37,1h-2a1.87,1.87,0,0,0,1.6,1.42,7.84,7.84,0,0,1,2.21.8,3.38,3.38,0,0,1,1.6,2.39,19.63,19.63,0,0,1,.25,3V65.8A15.8,15.8,0,0,1,258.11,68.82Z" style="fill: #514333"/>
        <path d="M414.25,8.24a2.69,2.69,0,0,1,2.22,1.11,2.67,2.67,0,0,1,.49,2.46L402.45,58.18Q400.35,52,398,44.89t-4.8-14.14q-2.4-7-4.49-13.22c-1.4-4.14-2.58-7.65-3.57-10.52H382l-3.32,10.58L368,51.66l1,3.07,10.7-34.07q1.6,4.92,3.57,10.58t3.93,11.5q2,5.85,3.94,11.56l3.69,10.77a26.17,26.17,0,0,0,1.91,4.85,27.71,27.71,0,0,0,1.53,2.53,2.63,2.63,0,0,0,1.36,1.1l3.81-12.3,15.5-49.2a5.37,5.37,0,0,1,2-2.7,5.32,5.32,0,0,1,3.13-1L425,6.89l-11.57-.13Z" style="fill: #514333"/>
        <path d="M337.93,9.35a5.78,5.78,0,0,1,1.91,2.58c1.06,3.12,2.34,6.85,3.81,11.19s3,8.9,4.68,13.66,3.27,9.55,4.92,14.39,3.19,9.35,4.67,13.53a39,39,0,0,0,2,5,21.78,21.78,0,0,0,1.54,2.64,3.49,3.49,0,0,0,1.35,1.23l3.81-12.3Q362.72,49.82,359.4,40q-1.48-4.17-2.89-8.42l-2.71-8.06q-1.29-3.81-2.34-6.76t-1.54-4.68l.13.13a2.67,2.67,0,0,1,.37-2.59,2.72,2.72,0,0,1,2.33-1.23l.87-1.47H334.06l.86,1.47A4.8,4.8,0,0,1,337.93,9.35Z" style="fill: #514333"/>
        <path d="M431.23,70.72a4.49,4.49,0,0,1-3.32,1.36l-.86,1.47h20.78l-1.23-1.72a4.61,4.61,0,0,1-4.67-4.67V22.39A23,23,0,0,1,437.87,25a24.59,24.59,0,0,1-4.74,1.72,24.67,24.67,0,0,1-6.33.74l.86,1.47a4.83,4.83,0,0,1,4.92,4.93V67.4A4.5,4.5,0,0,1,431.23,70.72Z" style="fill: #514333"/>
        <path d="M437.5,16A5.46,5.46,0,0,0,443,10.46a5.46,5.46,0,0,0-5.54-5.54A5.46,5.46,0,0,0,432,10.46,5.46,5.46,0,0,0,437.5,16Z" style="fill: #514333"/>
        <path d="M456.07,70.72a4.49,4.49,0,0,1-3.32,1.36l-.86,1.47h20.79l-.86-1.47a4.71,4.71,0,0,1-3.39-1.36,5.51,5.51,0,0,1-1.66-3.44V0a23,23,0,0,1-4.06,2.58A24.73,24.73,0,0,1,458,4.3a24.37,24.37,0,0,1-6.34.74l.86,1.48a4.82,4.82,0,0,1,4.92,4.92v56A4.5,4.5,0,0,1,456.07,70.72Z" style="fill: #514333"/>
        <path d="M496.11,70.72a5.41,5.41,0,0,1-1.66-3.44V0a23.34,23.34,0,0,1-4.06,2.58,24.59,24.59,0,0,1-4.74,1.72,24.23,24.23,0,0,1-6.33.74l.86,1.48a4.83,4.83,0,0,1,4.92,4.92v56a4.63,4.63,0,0,1-4.68,4.68l-.86,1.47h20.79l-.86-1.47A4.69,4.69,0,0,1,496.11,70.72Z" style="fill: #514333"/>
        <path d="M526.24,67.1a30.55,30.55,0,0,1-4.49-6.58,43.23,43.23,0,0,1-3.2-8.25h.13a36.32,36.32,0,0,1-1.36-8.73,35,35,0,0,1,.62-7.93,21,21,0,0,1,2.34-6.4,13,13,0,0,1,3.93-4.36,25.12,25.12,0,0,0-15.74,23.49,24.79,24.79,0,0,0,2,9.9,25.19,25.19,0,0,0,23.37,15.44c.57,0,1.12,0,1.66-.06s1.08-.11,1.66-.19a13,13,0,0,1-5.6-1.91A23.72,23.72,0,0,1,526.24,67.1Z" style="fill: #514333"/>
        <path d="M551.89,30.26a25.25,25.25,0,0,0-18-7.38h-.12c-.58,0-1.13,0-1.66.06s-1.09.1-1.66.18A13,13,0,0,1,536.08,25a23.55,23.55,0,0,1,5.29,4.43A30.3,30.3,0,0,1,545.86,36a43.14,43.14,0,0,1,3.2,8.24A36.3,36.3,0,0,1,550.41,53,35.13,35.13,0,0,1,549.8,61a21.39,21.39,0,0,1-2.34,6.39,13.17,13.17,0,0,1-3.94,4.37,25.18,25.18,0,0,0,15.75-23.49,25,25,0,0,0-2-9.91A25.35,25.35,0,0,0,551.89,30.26Z" style="fill: #514333"/>
        <path d="M590.26,58.67,578.08,28.41a3.14,3.14,0,0,1,.25-2.95,2.85,2.85,0,0,1,2.58-1.35l.87-1.48H559.39l.86,1.48a8.42,8.42,0,0,1,4.92,1.54,8.68,8.68,0,0,1,3.2,4L585.1,71.09l1,2.46,5.17-12.42,7.13-16.85-1-2.46Z" style="fill: #514333"/>
        <path d="M629.38,24.11a2.49,2.49,0,0,1,2.15,1.17,2.43,2.43,0,0,1,.18,2.52l-13,30.87L606.5,28.41a3.13,3.13,0,0,1,.24-2.95,2.88,2.88,0,0,1,2.59-1.35l.86-1.48H587.8l.86,1.48a8.37,8.37,0,0,1,4.92,1.54,8.68,8.68,0,0,1,3.2,4l16.73,41.45,1,2.46,5.17-12.42,13.77-32.84A7.11,7.11,0,0,1,636,25.34a6.56,6.56,0,0,1,3.75-1.11l.86-1.48-12.06-.12Z" style="fill: #514333"/>
        <path d="M679.62,53.57a18.18,18.18,0,0,0-3.2-4.12,29.18,29.18,0,0,0-4.24-3.39q-2.34-1.53-4.43-2.64a27.9,27.9,0,0,0-3.57-1.72,14.19,14.19,0,0,1-3.44-2,12.89,12.89,0,0,1-3.2-3.44,8.25,8.25,0,0,1-1.35-4.56,6.68,6.68,0,0,1,.74-3.07,9.73,9.73,0,0,1,2.64-3.51q1.41-1,3.51-2.4a16.77,16.77,0,0,0-5.23,1.36,18.42,18.42,0,0,0-4.55,2.83A13.37,13.37,0,0,0,650,31.06a11.55,11.55,0,0,0-1.23,5.35,10.67,10.67,0,0,0,1.72,6.27,16.36,16.36,0,0,0,4.37,4.24A33.79,33.79,0,0,0,660.55,50a46.18,46.18,0,0,1,5.66,2.89,17,17,0,0,1,4.37,3.69A8.22,8.22,0,0,1,672.3,62a11.47,11.47,0,0,1-.37,2.83,20,20,0,0,1-1,3,12.2,12.2,0,0,1-1.54,2.71,7.43,7.43,0,0,1-2.15,2,25.22,25.22,0,0,0,4.8-1.85,20.65,20.65,0,0,0,4.42-2.95,14.37,14.37,0,0,0,3.2-4,10.54,10.54,0,0,0,1.23-5.1A9.91,9.91,0,0,0,679.62,53.57Z" style="fill: #514333"/>
        <path d="M653.61,67.9V68a11.46,11.46,0,0,1-4.43-7.5l-1.36-.87V72.32H648a4,4,0,0,1,1.72-.49,3.78,3.78,0,0,1,1.11.25,31.5,31.5,0,0,0,8.36,1.1c.66,0,1.31,0,2-.06s1.31-.1,2-.18a14.72,14.72,0,0,1-5-2A44.56,44.56,0,0,1,653.61,67.9Z" style="fill: #514333"/>
        <path d="M674.64,29.77a17.57,17.57,0,0,1,1.47,2.7,5.7,5.7,0,0,1,.74,2.83l1.48.86V25.46a2.39,2.39,0,0,1-1.11.25,4.15,4.15,0,0,1-2.34-.86,18,18,0,0,0-7.62-2.46,15.87,15.87,0,0,1,4.06,3.19A29.67,29.67,0,0,1,674.64,29.77Z" style="fill: #514333"/>
        <path d="M182.37,105l0,0,2.19-6.48-.3-.73-4.25,12.49a1.5,1.5,0,0,1-.55.73,1.46,1.46,0,0,1-.85.27l-.23.4h3.06l-.24-.4a.71.71,0,0,1-.66-1l1.63-4.78h5l-.2-.5Z" style="fill: #514333"/>
        <path d="M193.1,110.52l-6.48-16.91h-2l.23.4a1.62,1.62,0,0,1,.16.43,1.5,1.5,0,0,1,0,.58,4.59,4.59,0,0,1-.2.85l-.07.2,5.45,14.25a.6.6,0,0,1-.07.62.63.63,0,0,1-.53.28l-.23.4h4.92l-.24-.4A1,1,0,0,1,193.1,110.52Z" style="fill: #514333"/>
        <path d="M222.66,95a5.75,5.75,0,0,0-1.84-1,6.5,6.5,0,0,0-2.09-.35h-7.95l.23.4a1.26,1.26,0,0,1,.93.36,1.3,1.3,0,0,1,.37.93v14.62a1.27,1.27,0,0,1-.37.93,1.23,1.23,0,0,1-.93.37l-.23.4h5.6l-.22-.4a1.2,1.2,0,0,1-.91-.37,1.29,1.29,0,0,1-.35-.93V94.11h3.73a2.43,2.43,0,0,1,1.44.43,3.44,3.44,0,0,1,1,1.1,5.41,5.41,0,0,1,.6,1.44,6.07,6.07,0,0,1,.19,1.48,5.7,5.7,0,0,1-.2,1.48,5.39,5.39,0,0,1-.59,1.44,3.59,3.59,0,0,1-1,1.1,2.43,2.43,0,0,1-1.44.43H216v.53h2.8a6.32,6.32,0,0,0,2.09-.35,5.67,5.67,0,0,0,1.81-1,4.93,4.93,0,0,0,1.28-1.58,4.33,4.33,0,0,0,.5-2.06,4.22,4.22,0,0,0-.5-2A5.05,5.05,0,0,0,222.66,95Z" style="fill: #514333"/>
        <path d="M253.34,110.52l-6.48-16.91h-2l.23.4a1.6,1.6,0,0,1,.17.43,1.75,1.75,0,0,1,0,.58,3.9,3.9,0,0,1-.2.85l-.07.2,5.45,14.25a.62.62,0,0,1-.06.62.65.65,0,0,1-.53.28l-.24.4h4.92l-.23-.4A1,1,0,0,1,253.34,110.52Z" style="fill: #514333"/>
        <path d="M242.61,105l0,0,2.19-6.48-.3-.73-4.25,12.49a1.44,1.44,0,0,1-.55.73,1.41,1.41,0,0,1-.85.27l-.23.4h3.06l-.23-.4a.72.72,0,0,1-.67-1l1.63-4.78h5.05l-.2-.5Z" style="fill: #514333"/>
        <path d="M272.34,110.85a1.23,1.23,0,0,1-.93.37l-.23.4h5.61l-.23-.4a1.21,1.21,0,0,1-.91-.37,1.29,1.29,0,0,1-.35-.93V94.11H279a2.4,2.4,0,0,1,1.26.35,3.43,3.43,0,0,1,1,.94,4.6,4.6,0,0,1,.7,1.42,6.1,6.1,0,0,1,.24,1.74,5.76,5.76,0,0,1-.25,1.74,4.37,4.37,0,0,1-.69,1.42,3.59,3.59,0,0,1-1.05.94A2.4,2.4,0,0,1,279,103h-2.93c.29.31.56.61.8.9s.46.5.7.78l.63.71,4.42,5a1.72,1.72,0,0,1,.27.45.25.25,0,0,1-.05.23.35.35,0,0,1-.22.1l-.17,0h0l-.23.4h6l-.2-.37a2.83,2.83,0,0,1-2.19-1l-5.94-6.74a6.77,6.77,0,0,0,1.94-.56,6,6,0,0,0,1.58-1.08,5,5,0,0,0,1-1.48,4.19,4.19,0,0,0,.39-1.8,4.35,4.35,0,0,0-.45-1.94,4.86,4.86,0,0,0-1.23-1.58A6.25,6.25,0,0,0,281.38,94a6.05,6.05,0,0,0-2.23-.4h-8l.23.4a1.26,1.26,0,0,1,.93.36,1.3,1.3,0,0,1,.37.93v14.62A1.27,1.27,0,0,1,272.34,110.85Z" style="fill: #514333"/>
        <path d="M303.17,97l.4-.16a2.54,2.54,0,0,1,.48-1.13,3.73,3.73,0,0,1,.92-.85,4.22,4.22,0,0,1,1.16-.53,4.47,4.47,0,0,1,1.23-.18h7.84a4.47,4.47,0,0,1,1.23.18,4.22,4.22,0,0,1,1.16.53,3.52,3.52,0,0,1,.91.85A2.45,2.45,0,0,1,319,96.8l.39.16L319,93.61H303.6Z" style="fill: #514333"/>
        <path d="M310,94.91v15a1.25,1.25,0,0,1-1.29,1.3l-.24.4h5.65l-.23-.4a1.23,1.23,0,0,1-.93-.37,1.27,1.27,0,0,1-.37-.93v-15Z" style="fill: #514333"/>
        <path d="M354.8,94.37a1.26,1.26,0,0,1,.93-.36l.23-.4h-4.15l-5.95,14.52-6.54-14.52h-4l.24.4a1.47,1.47,0,0,1,1,.36,2.71,2.71,0,0,1,.4.49,4.76,4.76,0,0,1,.56,1l6.32,14a4.68,4.68,0,0,0,.48.87,2.15,2.15,0,0,0,.38.43,1,1,0,0,0,.37.16l1.06-2.62,5.71-13.92v15.08a1.25,1.25,0,0,1-1.29,1.3l-.23.4H356l-.23-.4a1.23,1.23,0,0,1-.93-.37,1.27,1.27,0,0,1-.37-.93V95.3A1.3,1.3,0,0,1,354.8,94.37Z" style="fill: #514333"/>
        <path d="M337,97.53v12.66a1,1,0,0,1-.3.73,1,1,0,0,1-.73.3l-.24.4h3.06l-.23-.4a1,1,0,0,1-1-1h0V98.66Z" style="fill: #514333"/>
        <path d="M380.55,102.25h-2.79v.53h2.82a1.71,1.71,0,0,1,1.73,1.73l.4.23v-4.42l-.4.23a1.67,1.67,0,0,1-.5,1.23A1.61,1.61,0,0,1,380.55,102.25Z" style="fill: #514333"/>
        <path d="M384.73,96.8l.4.16-.43-3.35H372.54l.23.4a1.25,1.25,0,0,1,1.3,1.29v14.62a1.26,1.26,0,0,1-1.3,1.3l-.23.4H384.7l.43-3.36-.4.17v0a2.9,2.9,0,0,1-1.26,1.9,4.36,4.36,0,0,1-2.52.79h-4.29v-17H381a4.37,4.37,0,0,1,2.52.8A2.9,2.9,0,0,1,384.73,96.8Z" style="fill: #514333"/>
        <path d="M414.7,94a1,1,0,0,1,1,1V107.3l-10-13.69H402l.23.4a1.05,1.05,0,0,1,.76.28,6.69,6.69,0,0,1,.63.71L415,110.62a2.41,2.41,0,0,0,.9.86.44.44,0,0,0,.36.1V95a1,1,0,0,1,.3-.73,1,1,0,0,1,.73-.3l.23-.39-3,0Z" style="fill: #514333"/>
        <path d="M404.5,110.92a1,1,0,0,1-.3-.73h0V97.73l-.5-.7v13.16a1,1,0,0,1-1,1l-.23.4h3l-.23-.4A1,1,0,0,1,404.5,110.92Z" style="fill: #514333"/>
        <path d="M443.5,110.85a1.26,1.26,0,0,1-.36-.93v-15h-2.59v15a1.26,1.26,0,0,1-1.3,1.3l-.23.4h5.65l-.23-.4A1.27,1.27,0,0,1,443.5,110.85Z" style="fill: #514333"/>
        <path d="M434.17,93.61,433.74,97l.4-.16a2.33,2.33,0,0,1,.48-1.13,3.68,3.68,0,0,1,.91-.85,4.36,4.36,0,0,1,1.16-.53,4.47,4.47,0,0,1,1.23-.18h7.84a4.53,4.53,0,0,1,2.4.71,3.68,3.68,0,0,1,.91.85,2.43,2.43,0,0,1,.48,1.13l.4.16-.43-3.35Z" style="fill: #514333"/>
        <path d="M472.71,93.94a8,8,0,0,1,1.59,1.3,5.52,5.52,0,0,1,1,1.28,7.88,7.88,0,0,1,.54,1.14l0,0a1.46,1.46,0,0,1,.1.23l.06.2.14.56a.52.52,0,0,0,.43.37V94.24l-.4.23a.6.6,0,0,1-.37.24.82.82,0,0,1-.51,0,4.61,4.61,0,0,1-.52-.23,6.39,6.39,0,0,0-1.36-.56,6.28,6.28,0,0,0-1.46-.24A4.52,4.52,0,0,1,472.71,93.94Z" style="fill: #514333"/>
        <path d="M476.13,103.58l0-.14a5.92,5.92,0,0,0-.83-.69,8.08,8.08,0,0,0-2.18-1,22.85,22.85,0,0,1-2.31-.87c-.38-.18-.74-.36-1.08-.56a5.11,5.11,0,0,1-.95-.73,3.77,3.77,0,0,1-.64-1,2.64,2.64,0,0,1-.25-1.12,3.47,3.47,0,0,1,.41-1.76,4.64,4.64,0,0,1,.93-1.13,4.32,4.32,0,0,1,1-.63l.57-.23a5.18,5.18,0,0,0-2,.75,5.31,5.31,0,0,0-1.53,1.41,4.23,4.23,0,0,0-.66,1.24,4.28,4.28,0,0,0-.24,1.42,4.38,4.38,0,0,0,.48,2,5.4,5.4,0,0,0,1.25,1.61,6.36,6.36,0,0,0,1.6,1c.57.25,1.15.47,1.72.67a22,22,0,0,1,2.08.83,5.23,5.23,0,0,1,1.78,1.33,3,3,0,0,1,.73,1.49,3.07,3.07,0,0,1,0,.5,2.87,2.87,0,0,1-.48,1.66,5,5,0,0,1-1.08,1.15,6.4,6.4,0,0,1-1.11.68,4.28,4.28,0,0,1-.58.23h.29a5.54,5.54,0,0,0,2-.73,5.34,5.34,0,0,0,1.56-1.43,4.5,4.5,0,0,0,.9-2.66,4.37,4.37,0,0,0-.37-1.76A4.86,4.86,0,0,0,476.13,103.58Z" style="fill: #514333"/>
        <path d="M469.72,110.15a5.66,5.66,0,0,1-1.08-1.29,11.84,11.84,0,0,1-.62-1.16l0-.07a1.33,1.33,0,0,1-.1-.23c0-.07,0-.14-.07-.2l-.13-.57a.49.49,0,0,0-.23-.3l-.2-.06v4.81l.39-.23a.56.56,0,0,1,.37-.23.92.92,0,0,1,.52,0l.51.24a8.48,8.48,0,0,0,1.28.49,6.5,6.5,0,0,0,1.31.27,11.65,11.65,0,0,1-1-.7A10.37,10.37,0,0,1,469.72,110.15Z" style="fill: #514333"/>
        <path d="M371.16,150.13a4.26,4.26,0,0,0-4.68,1.54l-.27.4c-4.37-1.38-8.66-2.49-12.83-3.38,0-.39.19-1.61,3.61-3.72l.35.38a4.44,4.44,0,0,0,4.91.86.41.41,0,0,0,.23-.22.42.42,0,0,0,0-.33.45.45,0,0,0-.23-.24.47.47,0,0,0-.33,0,3.61,3.61,0,0,1-3.91-.6,2.55,2.55,0,0,1-.68-2.45,3.56,3.56,0,0,1,2.46-2.46c1.7-.54,6.5-.58,7,.9.16.5-.24,1.27-1.09,2.12l-.25.24a.42.42,0,0,0,0,.6.44.44,0,0,0,.61,0c1.33-1.24,1.86-2.33,1.58-3.25-.39-1.21-2.23-1.63-3.29-1.77a12.29,12.29,0,0,0-4.75.31,4.17,4.17,0,0,0-3.06,4.65l.1.47-.41.24a13.17,13.17,0,0,0-4.45,3.6l-.16.26c-4.66-.93-9.16-1.59-13.48-2l1.51-.81a17.88,17.88,0,0,0,4.91-3.53l.33-.37.45.21a4.23,4.23,0,0,0,5-1.38c1.09-1.35,2.47-4.51,2.24-6.59a2,2,0,0,0-.66-1.42c-1.71-1.38-6,1.3-7.51,3.22a4.24,4.24,0,0,0-.47,5l.27.42c-5.21,4.89-9.71,4.95-9.71,4.95h0c-4.71-.36-9.17-.48-13.34-.41-.44-1-1-4.12,5.56-7.22l.32.33a4.23,4.23,0,0,0,5.15.4c1.65-1,4.22-3.71,4.48-5.77a1.71,1.71,0,0,0-.45-1.51c-.7-.69-2.35-.89-4.33-.52a9.54,9.54,0,0,0-4.55,2,4.15,4.15,0,0,0-1.2,3.8l.12.51-.47.23c-2,.95-6.64,3.58-6.45,7.53l0,.28c-4.13.12-7.95.41-11.4.79l0,0c-.38-1.4,1.74-4.67,2.17-5.32l.28-.42.49.17a4.44,4.44,0,0,0,4.78-1.4.45.45,0,0,0,.11-.31.44.44,0,0,0-.14-.29.41.41,0,0,0-.31-.11.39.39,0,0,0-.3.14,3.79,3.79,0,0,1-2.73,1.35,2.79,2.79,0,0,1-2.08-.8,3.25,3.25,0,0,1,.4-4.49l.05,0a11.93,11.93,0,0,1,3.56-2.11c.56-.21,2.42-.85,3.08-.18.4.41.34,1.42-.15,2.71a.43.43,0,0,0,.25.55.47.47,0,0,0,.33,0,.43.43,0,0,0,.22-.24c.64-1.68.63-2.92-.05-3.62-.92-.92-2.79-.44-3.83-.07a12.34,12.34,0,0,0-4.07,2.42,4.11,4.11,0,0,0-.6,5.46l.3.37s-3.3,3.37-3.49,6.51c-4.82.6-8.86,1.36-11.93,2a14.35,14.35,0,0,0,2.59-5.42l.48-.06.1,0a3.85,3.85,0,0,0,3.22-1.2,4.84,4.84,0,0,0,1.1-1.7c.61-1.63.94-5.05.09-6.94a2.08,2.08,0,0,0-1.1-1.17c-2-.77-5.27,3.16-6.12,5.41a4.3,4.3,0,0,0,1.1,4.87l.4.31-.2.46c-1,2.22-3.47,4.8-5,6.23-.74.19-1.39.37-1.91.52h0c-6.06,1.48-10.17,3.39-13.77,3.2l-1.74,6.46c3.56-2.57,10.6-4.62,13.23-5.43,3.73-.48,8,3.24,8,3.24l-.24.43a4.3,4.3,0,0,0,1,5.06c1.44,1.45,5.89,4.13,7.57,2.56l0-.05c1.63-1.62-.75-6.3-2.18-7.84a4.26,4.26,0,0,0-5.05-1.07l-.13.13h-.54l-.19-.19a20.86,20.86,0,0,0-6.08-3.56,103.56,103.56,0,0,1,17.68-4.23c.18,1.24,1,6.42,2.94,9.18l.23.33-.2.36-.12.16a3.73,3.73,0,0,0-.8,2.27,4.94,4.94,0,0,0,1.64,3.68c2.74,2.73,5.37,3.47,6.56,2.79.93-.53,1.16-2,.62-4.17a10.87,10.87,0,0,0-2.23-4.51,4.2,4.2,0,0,0-4.25-1.15l-.47.17a15.62,15.62,0,0,1-1.94-9.39c2.21-.3,4.41-.53,6.57-.7.85,1.55,3.21,5.56,5.64,7.34l.28.21v.35l-.05.22a4,4,0,0,0,1.09,4.26,10.76,10.76,0,0,0,7.06,2.32,2.33,2.33,0,0,0,1.82-.87,2.08,2.08,0,0,0,.2-1.58c-.41-2-2.66-4.65-4.1-5.6a4.29,4.29,0,0,0-5,0l-.39.31a14.61,14.61,0,0,1-4.73-7.08c3-.19,6-.27,8.83-.27,2,.77,5.07,2.15,6.7,3.76l.36.35-.24.43a4.23,4.23,0,0,0,.82,4.93l.13.13c1.45,1.45,5.9,4.13,7.59,2.55.7-.66.77-1.86.22-3.59a.4.4,0,0,0-.21-.25.38.38,0,0,0-.33,0,.42.42,0,0,0-.27.54c.42,1.3.42,2.29,0,2.7s-1.55.31-2.95-.29a11.91,11.91,0,0,1-3.56-2.35,3.26,3.26,0,0,1-.22-4.55,2.73,2.73,0,0,1,2.09-.69,3.81,3.81,0,0,1,2.69,1.49.42.42,0,0,0,.6.07.41.41,0,0,0,.16-.29.44.44,0,0,0-.09-.31,4.28,4.28,0,0,0-5.41-1.36l-.43.26a14.21,14.21,0,0,0-3.59-3.43A152.47,152.47,0,0,1,348.19,149v.23c.08,3.51,4,6.29,5.62,7.31l.46.29-.18.5a4.14,4.14,0,0,0,1.13,4.29,10.89,10.89,0,0,0,6.85,2.51,2.25,2.25,0,0,0,1.73-.75c1.3-1.73-1.55-5.94-3.48-7.39a4.26,4.26,0,0,0-5.18-.15l-.36.29c-4.7-2.8-4.62-5.78-4.43-6.79,5.89,1,10.42,2.07,13,2.77l2,.57.5.15,0,.52a4.19,4.19,0,0,0,3.31,4.11c1.75.46,6,.41,7.5-1.05a1.57,1.57,0,0,0,.45-1.63C376.65,152.94,373.52,150.76,371.16,150.13Zm-27-11.61a3.76,3.76,0,0,1,.87-2.38,11.7,11.7,0,0,1,3.65-2.73,4.77,4.77,0,0,1,1.93-.55,1.18,1.18,0,0,1,.77.23c.52.51.48,1.68-.11,3.47a10.28,10.28,0,0,1-1.94,3.62,3.18,3.18,0,0,1-4.19.52A2.74,2.74,0,0,1,344.2,138.52ZM327,135.87a3.44,3.44,0,0,1,1-2c1.32-1.33,4.32-1.93,6-1.93a5.72,5.72,0,0,1,.62,0,1.48,1.48,0,0,1,1.14.57,1.21,1.21,0,0,1,.08.93,10.93,10.93,0,0,1-4.06,4.86,3.39,3.39,0,0,1-4.1-.27A2.56,2.56,0,0,1,327,135.87ZM296.1,141.6a3.53,3.53,0,0,1-.63-3.71,11.48,11.48,0,0,1,2.47-3.59,3.92,3.92,0,0,1,2.26-1.37.78.78,0,0,1,.22,0,.71.71,0,0,1,.35.22c1.05,1,.91,5,.23,6.81a3.61,3.61,0,0,1-2.52,2.3A2.54,2.54,0,0,1,296.1,141.6Zm-.35,16.12.06-.06a2.66,2.66,0,0,1,1.85-.69,3.7,3.7,0,0,1,2.58,1.11,11.32,11.32,0,0,1,2.15,3.68c.54,1.48.6,2.64.14,3.09s-1.54.31-2.95-.29a12.23,12.23,0,0,1-3.45-2.23,3.84,3.84,0,0,1-1.14-2.4A2.78,2.78,0,0,1,295.75,157.72Zm14.87,1.09a2.66,2.66,0,0,1,1.6-.52,3.64,3.64,0,0,1,2.85,1.52c1.15,1.53,2.61,5.74,1.53,6.81l-.07.06c-.93.7-3.81-.86-5.57-2.63a4.2,4.2,0,0,1-1.4-3.22A2.74,2.74,0,0,1,310.62,158.81Zm11.83-3.6a3,3,0,0,1,2.09-.8,3.93,3.93,0,0,1,2.13.65,11.83,11.83,0,0,1,3.28,3.81c.51,1,.65,1.78.38,2.19l-.09.11c-1.07,1.07-5.3-.16-6.85-1.19a3.59,3.59,0,0,1-1.66-2.63A2.64,2.64,0,0,1,322.45,155.21Zm33.05,1.5a2.82,2.82,0,0,1,2-.8,4.27,4.27,0,0,1,3,1.4,12.73,12.73,0,0,1,2.24,3.11c.58,1.15.72,2.06.38,2.5l-.05.06c-.64.64-2.27.34-3.52,0a9.82,9.82,0,0,1-3.72-1.89A3.07,3.07,0,0,1,355.5,156.71Zm20.84-1.25c-.42,1.46-5,1.71-6.91,1.21h0a3.52,3.52,0,0,1-2.63-2.6,2.54,2.54,0,0,1,1-2.6,3.52,3.52,0,0,1,2.08-.65,4.12,4.12,0,0,1,1,.14,11.87,11.87,0,0,1,4.47,2.67C376.14,154.35,376.47,155,376.34,155.46Z" style="fill: #514333"/>
      </g>
    </g>
  </g>
</svg>
